# Blender 3.6.2
# www.blender.org
mtllib base_camara.mtl
o Cylinder04
v 0.014459 41.991634 0.113507
v 4.917259 41.984035 1.898007
v 5.231859 41.991634 0.113507
v 4.011259 41.977329 3.467207
v 2.623159 41.972332 4.631907
v 0.920459 41.969631 5.251707
v -0.891541 41.969631 5.251707
v -2.594241 41.972332 4.631907
v -3.982341 41.977329 3.467207
v -4.888341 41.984035 1.898007
v -5.203041 41.991634 0.113507
v -4.888341 41.999233 -1.670893
v -3.982341 42.005932 -3.240093
v -2.594341 42.010830 -4.404893
v -0.891541 42.013531 -5.024593
v 0.920459 42.013531 -5.024593
v 2.623159 42.010830 -4.404893
v 4.011259 42.005932 -3.240093
v 4.917259 41.999233 -1.670893
v 4.917259 34.834530 1.867508
v 5.231859 34.842136 0.083008
v 4.011259 34.827831 3.436708
v 2.623159 34.822834 4.601408
v 0.920459 34.820232 5.221208
v -0.891541 34.820232 5.221208
v -2.594241 34.822834 4.601408
v -3.982341 34.827831 3.436708
v -4.888341 34.834530 1.867508
v -5.203041 34.842136 0.083008
v -4.888341 34.849735 -1.701392
v -3.982341 34.856434 -3.270592
v -2.594341 34.861431 -4.435392
v -0.891541 34.864033 -5.055093
v 0.920459 34.864033 -5.055093
v 2.623159 34.861431 -4.435392
v 4.011259 34.856434 -3.270592
v 4.917259 34.849735 -1.701392
v 4.917259 27.685032 1.837008
v 5.231859 27.692633 0.052508
v 4.011259 27.678333 3.406208
v 2.623159 27.673332 4.570909
v 0.920459 27.670732 5.190708
v -0.891541 27.670732 5.190708
v -2.594241 27.673332 4.570909
v -3.982341 27.678333 3.406208
v -4.888341 27.685032 1.837008
v -5.203041 27.692633 0.052508
v -4.888341 27.700233 -1.731892
v -3.982341 27.706932 -3.301092
v -2.594341 27.711933 -4.465891
v -0.891541 27.714533 -5.085592
v 0.920459 27.714533 -5.085592
v 2.623159 27.711933 -4.465891
v 4.011259 27.706932 -3.301092
v 4.917259 27.700233 -1.731892
v 4.917259 20.535532 1.806509
v 5.231859 20.543133 0.022009
v 4.011259 20.528833 3.375709
v 2.623159 20.523832 4.540409
v 0.920459 20.521233 5.160209
v -0.891541 20.521233 5.160209
v -2.594241 20.523832 4.540409
v -3.982341 20.528833 3.375709
v -4.888341 20.535532 1.806509
v -5.203041 20.543133 0.022009
v -4.888341 20.550734 -1.762391
v -3.982341 20.557432 -3.331591
v -2.594341 20.562433 -4.496391
v -0.891541 20.565033 -5.116091
v 0.920459 20.565033 -5.116091
v 2.623159 20.562433 -4.496391
v 4.011259 20.557432 -3.331591
v 4.917259 20.550734 -1.762391
v 4.917259 13.386033 1.776009
v 5.231859 13.393633 -0.008491
v 4.011259 13.379333 3.345210
v 2.623159 13.374332 4.509909
v 0.920459 13.371733 5.129709
v -0.891541 13.371733 5.129709
v -2.594241 13.374332 4.509909
v -3.982341 13.379333 3.345210
v -4.888341 13.386033 1.776009
v -5.203041 13.393633 -0.008491
v -4.888341 13.401233 -1.792891
v -3.982341 13.407932 -3.362090
v -2.594341 13.412932 -4.526891
v -0.891541 13.415533 -5.146591
v 0.920459 13.415533 -5.146591
v 2.623159 13.412932 -4.526891
v 4.011259 13.407932 -3.362090
v 4.917259 13.401233 -1.792891
v 4.917259 6.236532 1.745510
v 5.231859 6.244133 -0.038990
v 4.011259 6.229832 3.314710
v 2.623159 6.224833 4.479410
v 0.920459 6.222233 5.099210
v -0.891541 6.222233 5.099210
v -2.594241 6.224833 4.479410
v -3.982341 6.229832 3.314710
v -4.888341 6.236532 1.745510
v -5.203041 6.244133 -0.038990
v -4.888341 6.251732 -1.823390
v -3.982341 6.258432 -3.392590
v -2.594341 6.263431 -4.557390
v -0.891541 6.266033 -5.177090
v 0.920459 6.266033 -5.177090
v 2.623159 6.263431 -4.557390
v 4.011259 6.258432 -3.392690
v 4.917259 6.251732 -1.823390
v 0.014459 6.244133 -0.038990
v 6.452359 -0.922269 -8.303989
v 6.452359 16.180532 -8.303990
v 6.452359 16.180532 7.278509
v 6.452359 -0.922267 7.278510
v -6.849741 -0.922269 -8.303989
v -6.849741 -0.922267 7.278510
v -6.849741 16.180532 7.278509
v -6.849741 16.180532 -8.303990
vn -0.0000 1.0000 0.0043
vn -0.0000 1.0000 0.0042
vn 1.0000 -0.0000 -0.0000
vn 0.9397 -0.0015 0.3420
vn 0.7660 -0.0027 0.6428
vn 0.5000 -0.0037 0.8660
vn 0.1737 -0.0042 0.9848
vn -0.1737 -0.0042 0.9848
vn -0.5000 -0.0037 0.8660
vn -0.7660 -0.0027 0.6428
vn -0.9397 -0.0015 0.3420
vn -1.0000 -0.0000 -0.0000
vn -0.9397 0.0015 -0.3420
vn -0.7661 0.0027 -0.6428
vn -0.5000 0.0037 -0.8660
vn -0.1736 0.0042 -0.9848
vn 0.1736 0.0042 -0.9848
vn 0.5000 0.0037 -0.8660
vn 0.7660 0.0027 -0.6428
vn 0.7661 0.0027 -0.6428
vn 0.9397 0.0015 -0.3420
vn -0.0000 -1.0000 -0.0043
vn -0.0000 -1.0000 -0.0000
vn -0.0000 -0.0000 1.0000
vn -0.0000 1.0000 -0.0000
vn -0.0000 -0.0000 -1.0000
vt 0.548360 0.041662
vt 0.786347 0.041662
vt 0.743049 0.041662
vt 0.829568 0.041662
vt 0.872867 0.041662
vt 0.916088 0.041662
vt 0.180632 0.041662
vt 0.137333 0.041662
vt 0.223853 0.041662
vt 0.267151 0.041662
vt 0.310372 0.041662
vt 0.353671 0.041662
vt 0.396970 0.041662
vt 0.440191 0.041662
vt 0.483490 0.041662
vt 0.526710 0.041662
vt 0.570009 0.041662
vt 0.613230 0.041662
vt 0.656529 0.041662
vt 0.699750 0.041662
vt 0.786347 0.228622
vt 0.743049 0.228622
vt 0.829568 0.228622
vt 0.872867 0.228622
vt 0.916088 0.228622
vt 0.180632 0.228622
vt 0.137333 0.228622
vt 0.223853 0.228622
vt 0.267151 0.228622
vt 0.310372 0.228622
vt 0.353671 0.228622
vt 0.396970 0.228622
vt 0.440191 0.228622
vt 0.483490 0.228622
vt 0.526710 0.228622
vt 0.570009 0.228622
vt 0.613230 0.228622
vt 0.656529 0.228622
vt 0.699750 0.228622
vt 0.786347 0.415581
vt 0.743049 0.415581
vt 0.829568 0.415581
vt 0.872867 0.415581
vt 0.916088 0.415581
vt 0.180632 0.415581
vt 0.137333 0.415581
vt 0.223853 0.415581
vt 0.267151 0.415581
vt 0.310372 0.415581
vt 0.353671 0.415581
vt 0.396970 0.415581
vt 0.440191 0.415581
vt 0.483490 0.415581
vt 0.526710 0.415581
vt 0.570009 0.415581
vt 0.613230 0.415581
vt 0.656529 0.415581
vt 0.699750 0.415581
vt 0.786347 0.602541
vt 0.743049 0.602541
vt 0.829568 0.602541
vt 0.872867 0.602541
vt 0.916088 0.602541
vt 0.180632 0.602541
vt 0.137333 0.602541
vt 0.223853 0.602541
vt 0.267151 0.602541
vt 0.310372 0.602541
vt 0.353671 0.602541
vt 0.396970 0.602541
vt 0.440191 0.602541
vt 0.483490 0.602541
vt 0.526710 0.602541
vt 0.570009 0.602541
vt 0.613230 0.602541
vt 0.656529 0.602541
vt 0.699750 0.602541
vt 0.786347 0.789501
vt 0.743049 0.789501
vt 0.829568 0.789501
vt 0.872867 0.789501
vt 0.916088 0.789501
vt 0.180632 0.789501
vt 0.137333 0.789501
vt 0.223853 0.789501
vt 0.267151 0.789501
vt 0.310372 0.789501
vt 0.353671 0.789501
vt 0.396970 0.789501
vt 0.440191 0.789501
vt 0.483490 0.789501
vt 0.526710 0.789501
vt 0.570009 0.789501
vt 0.613230 0.789501
vt 0.656529 0.789501
vt 0.699750 0.789501
vt 0.786347 0.976460
vt 0.743049 0.976460
vt 0.829568 0.976460
vt 0.872867 0.976460
vt 0.916088 0.976460
vt 0.180632 0.976460
vt 0.137333 0.976460
vt 0.223853 0.976460
vt 0.267151 0.976460
vt 0.310372 0.976460
vt 0.353671 0.976460
vt 0.396970 0.976460
vt 0.440191 0.976460
vt 0.483490 0.976460
vt 0.526710 0.976460
vt 0.570009 0.976460
vt 0.613230 0.976460
vt 0.656529 0.976460
vt 0.699750 0.976460
vt 0.548360 0.976460
vt 0.076915 0.933895
vt 0.076915 0.076585
vt 0.934224 0.076585
vt 0.934224 0.933895
s 1
usemtl Material.002
f 1/1/1 2/2/1 3/3/1
f 1/1/1 4/4/1 2/2/1
f 1/1/1 5/5/1 4/4/1
f 1/1/1 6/6/1 5/5/1
f 1/1/1 7/7/1 6/8/1
f 1/1/1 8/9/1 7/7/1
f 1/1/1 9/10/1 8/9/1
f 1/1/1 10/11/1 9/10/1
f 1/1/1 11/12/1 10/11/1
f 1/1/1 12/13/1 11/12/1
f 1/1/1 13/14/1 12/13/1
f 1/1/1 14/15/1 13/14/1
f 1/1/1 15/16/1 14/15/1
f 1/1/1 16/17/1 15/16/1
f 1/1/1 17/18/2 16/17/1
f 1/1/1 18/19/2 17/18/2
f 1/1/1 19/20/1 18/19/2
f 1/1/1 3/3/1 19/20/1
f 3/3/3 20/21/4 21/22/3
f 3/3/3 2/2/4 20/21/4
f 2/2/4 22/23/5 20/21/4
f 2/2/4 4/4/5 22/23/5
f 4/4/5 23/24/6 22/23/5
f 4/4/5 5/5/6 23/24/6
f 5/5/6 24/25/7 23/24/6
f 5/5/6 6/6/7 24/25/7
f 6/8/7 25/26/8 24/27/7
f 6/8/7 7/7/8 25/26/8
f 7/7/8 26/28/9 25/26/8
f 7/7/8 8/9/9 26/28/9
f 8/9/9 27/29/10 26/28/9
f 8/9/9 9/10/10 27/29/10
f 9/10/10 28/30/11 27/29/10
f 9/10/10 10/11/11 28/30/11
f 10/11/11 29/31/12 28/30/11
f 10/11/11 11/12/12 29/31/12
f 11/12/12 30/32/13 29/31/12
f 11/12/12 12/13/13 30/32/13
f 12/13/13 31/33/14 30/32/13
f 12/13/13 13/14/14 31/33/14
f 13/14/14 32/34/15 31/33/14
f 13/14/14 14/15/15 32/34/15
f 14/15/15 33/35/16 32/34/15
f 14/15/15 15/16/16 33/35/16
f 15/16/16 34/36/17 33/35/16
f 15/16/16 16/17/17 34/36/17
f 16/17/17 35/37/18 34/36/17
f 16/17/17 17/18/18 35/37/18
f 17/18/18 36/38/19 35/37/18
f 17/18/18 18/19/20 36/38/19
f 18/19/20 37/39/21 36/38/19
f 18/19/20 19/20/21 37/39/21
f 19/20/21 21/22/3 37/39/21
f 19/20/21 3/3/3 21/22/3
f 21/22/3 38/40/4 39/41/3
f 21/22/3 20/21/4 38/40/4
f 20/21/4 40/42/5 38/40/4
f 20/21/4 22/23/5 40/42/5
f 22/23/5 41/43/6 40/42/5
f 22/23/5 23/24/6 41/43/6
f 23/24/6 42/44/7 41/43/6
f 23/24/6 24/25/7 42/44/7
f 24/27/7 43/45/8 42/46/7
f 24/27/7 25/26/8 43/45/8
f 25/26/8 44/47/9 43/45/8
f 25/26/8 26/28/9 44/47/9
f 26/28/9 45/48/10 44/47/9
f 26/28/9 27/29/10 45/48/10
f 27/29/10 46/49/11 45/48/10
f 27/29/10 28/30/11 46/49/11
f 28/30/11 47/50/12 46/49/11
f 28/30/11 29/31/12 47/50/12
f 29/31/12 48/51/13 47/50/12
f 29/31/12 30/32/13 48/51/13
f 30/32/13 49/52/14 48/51/13
f 30/32/13 31/33/14 49/52/14
f 31/33/14 50/53/15 49/52/14
f 31/33/14 32/34/15 50/53/15
f 32/34/15 51/54/16 50/53/15
f 32/34/15 33/35/16 51/54/16
f 33/35/16 52/55/17 51/54/16
f 33/35/16 34/36/17 52/55/17
f 34/36/17 53/56/18 52/55/17
f 34/36/17 35/37/18 53/56/18
f 35/37/18 54/57/19 53/56/18
f 35/37/18 36/38/19 54/57/19
f 36/38/19 55/58/21 54/57/19
f 36/38/19 37/39/21 55/58/21
f 37/39/21 39/41/3 55/58/21
f 37/39/21 21/22/3 39/41/3
f 39/41/3 56/59/4 57/60/3
f 39/41/3 38/40/4 56/59/4
f 38/40/4 58/61/5 56/59/4
f 38/40/4 40/42/5 58/61/5
f 40/42/5 59/62/6 58/61/5
f 40/42/5 41/43/6 59/62/6
f 41/43/6 60/63/7 59/62/6
f 41/43/6 42/44/7 60/63/7
f 42/46/7 61/64/8 60/65/7
f 42/46/7 43/45/8 61/64/8
f 43/45/8 62/66/9 61/64/8
f 43/45/8 44/47/9 62/66/9
f 44/47/9 63/67/10 62/66/9
f 44/47/9 45/48/10 63/67/10
f 45/48/10 64/68/11 63/67/10
f 45/48/10 46/49/11 64/68/11
f 46/49/11 65/69/12 64/68/11
f 46/49/11 47/50/12 65/69/12
f 47/50/12 66/70/13 65/69/12
f 47/50/12 48/51/13 66/70/13
f 48/51/13 67/71/14 66/70/13
f 48/51/13 49/52/14 67/71/14
f 49/52/14 68/72/15 67/71/14
f 49/52/14 50/53/15 68/72/15
f 50/53/15 69/73/16 68/72/15
f 50/53/15 51/54/16 69/73/16
f 51/54/16 70/74/17 69/73/16
f 51/54/16 52/55/17 70/74/17
f 52/55/17 71/75/18 70/74/17
f 52/55/17 53/56/18 71/75/18
f 53/56/18 72/76/19 71/75/18
f 53/56/18 54/57/19 72/76/19
f 54/57/19 73/77/21 72/76/19
f 54/57/19 55/58/21 73/77/21
f 55/58/21 57/60/3 73/77/21
f 55/58/21 39/41/3 57/60/3
f 57/60/3 74/78/4 75/79/3
f 57/60/3 56/59/4 74/78/4
f 56/59/4 76/80/5 74/78/4
f 56/59/4 58/61/5 76/80/5
f 58/61/5 77/81/6 76/80/5
f 58/61/5 59/62/6 77/81/6
f 59/62/6 78/82/7 77/81/6
f 59/62/6 60/63/7 78/82/7
f 60/65/7 79/83/8 78/84/7
f 60/65/7 61/64/8 79/83/8
f 61/64/8 80/85/9 79/83/8
f 61/64/8 62/66/9 80/85/9
f 62/66/9 81/86/10 80/85/9
f 62/66/9 63/67/10 81/86/10
f 63/67/10 82/87/11 81/86/10
f 63/67/10 64/68/11 82/87/11
f 64/68/11 83/88/12 82/87/11
f 64/68/11 65/69/12 83/88/12
f 65/69/12 84/89/13 83/88/12
f 65/69/12 66/70/13 84/89/13
f 66/70/13 85/90/14 84/89/13
f 66/70/13 67/71/14 85/90/14
f 67/71/14 86/91/15 85/90/14
f 67/71/14 68/72/15 86/91/15
f 68/72/15 87/92/16 86/91/15
f 68/72/15 69/73/16 87/92/16
f 69/73/16 88/93/17 87/92/16
f 69/73/16 70/74/17 88/93/17
f 70/74/17 89/94/18 88/93/17
f 70/74/17 71/75/18 89/94/18
f 71/75/18 90/95/20 89/94/18
f 71/75/18 72/76/19 90/95/20
f 72/76/19 91/96/21 90/95/20
f 72/76/19 73/77/21 91/96/21
f 73/77/21 75/79/3 91/96/21
f 73/77/21 57/60/3 75/79/3
f 75/79/3 92/97/4 93/98/3
f 75/79/3 74/78/4 92/97/4
f 74/78/4 94/99/5 92/97/4
f 74/78/4 76/80/5 94/99/5
f 76/80/5 95/100/6 94/99/5
f 76/80/5 77/81/6 95/100/6
f 77/81/6 96/101/7 95/100/6
f 77/81/6 78/82/7 96/101/7
f 78/84/7 97/102/8 96/103/7
f 78/84/7 79/83/8 97/102/8
f 79/83/8 98/104/9 97/102/8
f 79/83/8 80/85/9 98/104/9
f 80/85/9 99/105/10 98/104/9
f 80/85/9 81/86/10 99/105/10
f 81/86/10 100/106/11 99/105/10
f 81/86/10 82/87/11 100/106/11
f 82/87/11 101/107/12 100/106/11
f 82/87/11 83/88/12 101/107/12
f 83/88/12 102/108/13 101/107/12
f 83/88/12 84/89/13 102/108/13
f 84/89/13 103/109/14 102/108/13
f 84/89/13 85/90/14 103/109/14
f 85/90/14 104/110/15 103/109/14
f 85/90/14 86/91/15 104/110/15
f 86/91/15 105/111/16 104/110/15
f 86/91/15 87/92/16 105/111/16
f 87/92/16 106/112/17 105/111/16
f 87/92/16 88/93/17 106/112/17
f 88/93/17 107/113/18 106/112/17
f 88/93/17 89/94/18 107/113/18
f 89/94/18 108/114/19 107/113/18
f 89/94/18 90/95/20 108/114/19
f 90/95/20 109/115/21 108/114/19
f 90/95/20 91/96/21 109/115/21
f 91/96/21 93/98/3 109/115/21
f 91/96/21 75/79/3 93/98/3
f 110/116/22 93/98/22 92/97/22
f 110/116/22 92/97/22 94/99/22
f 110/116/22 94/99/22 95/100/22
f 110/116/22 95/100/22 96/101/22
f 110/116/22 96/103/22 97/102/22
f 110/116/22 97/102/22 98/104/22
f 110/116/22 98/104/22 99/105/22
f 110/116/22 99/105/22 100/106/22
f 110/116/22 100/106/22 101/107/22
f 110/116/22 101/107/22 102/108/22
f 110/116/22 102/108/22 103/109/22
f 110/116/22 103/109/22 104/110/22
f 110/116/22 104/110/22 105/111/22
f 110/116/22 105/111/22 106/112/22
f 110/116/22 106/112/22 107/113/22
f 110/116/22 107/113/22 108/114/22
f 110/116/22 108/114/22 109/115/22
f 110/116/22 109/115/22 93/98/22
f 111/117/3 112/118/3 113/119/3
f 113/119/3 114/120/3 111/117/3
f 115/120/12 116/117/12 117/118/12
f 117/118/12 118/119/12 115/120/12
f 111/120/23 114/117/23 116/118/23
f 116/118/23 115/119/23 111/120/23
f 114/120/24 113/117/24 117/118/24
f 117/118/24 116/119/24 114/120/24
f 113/120/25 112/117/25 118/118/25
f 118/118/25 117/119/25 113/120/25
f 112/120/26 111/117/26 115/118/26
f 115/118/26 118/119/26 112/120/26
