# Blender 3.6.2
# www.blender.org
mtllib llanta_texturizada.mtl
o WheelR-F
v -0.225616 0.029577 -0.733045
v -0.225616 0.274649 -0.689833
v -0.225616 0.490162 -0.565407
v -0.225616 0.650122 -0.374774
v -0.225616 0.735235 -0.140929
v -0.225616 0.735235 0.107925
v -0.225616 0.650122 0.341770
v -0.225616 0.490162 0.532403
v -0.225616 0.274649 0.656829
v -0.225616 0.029577 0.700042
v -0.225616 -0.215496 0.656829
v -0.225616 -0.431009 0.532403
v -0.225616 -0.590969 0.341771
v -0.225616 -0.676082 0.107926
v -0.225616 -0.676082 -0.140929
v -0.225616 -0.590969 -0.374774
v -0.225616 -0.431009 -0.565406
v -0.225616 -0.215496 -0.689833
v 0.227214 0.274649 -0.689833
v 0.227214 0.029577 -0.733045
v 0.227214 0.490162 -0.565407
v 0.227214 0.650122 -0.374774
v 0.227214 0.735235 -0.140929
v 0.227214 0.735235 0.107925
v 0.227214 0.650122 0.341770
v 0.227214 0.490162 0.532403
v 0.227214 0.274649 0.656829
v 0.227214 0.029577 0.700042
v 0.227214 -0.215496 0.656829
v 0.227214 -0.431009 0.532403
v 0.227214 -0.590969 0.341771
v 0.227214 -0.676082 0.107926
v 0.227214 -0.676082 -0.140929
v 0.227214 -0.590969 -0.374774
v 0.227214 -0.431009 -0.565406
v 0.227214 -0.215496 -0.689833
v 0.293134 0.243754 -0.604949
v 0.293134 0.029577 -0.642714
v 0.293134 0.432098 -0.496208
v 0.293134 0.571892 -0.329608
v 0.293134 0.646275 -0.125243
v 0.293134 0.646275 0.092239
v 0.293134 0.571892 0.296604
v 0.293134 0.432098 0.463204
v 0.293134 0.243754 0.571946
v 0.293134 0.029577 0.609710
v 0.293134 -0.184600 0.571946
v 0.293134 -0.372945 0.463205
v 0.293134 -0.512739 0.296605
v 0.293134 -0.587122 0.092240
v 0.293134 -0.587122 -0.125243
v 0.293134 -0.512739 -0.329608
v 0.293134 -0.372945 -0.496208
v 0.293134 -0.184600 -0.604949
v 0.293134 0.182356 -0.436260
v 0.293134 0.316708 -0.358692
v 0.293134 0.416428 -0.239851
v 0.293134 0.469487 -0.094070
v 0.293134 0.469487 0.061066
v 0.293134 0.416428 0.206848
v 0.293134 0.316708 0.325688
v 0.293134 0.182356 0.403257
v 0.293134 0.029577 0.430195
v 0.293134 -0.123203 0.403257
v 0.293134 -0.257555 0.325688
v 0.293134 -0.357274 0.206848
v 0.293134 -0.410334 0.061067
v 0.293134 -0.410334 -0.094070
v 0.293134 -0.357274 -0.239851
v 0.293134 -0.257555 -0.358692
v 0.293134 -0.123203 -0.436260
v 0.293134 0.029577 -0.463199
v 0.232605 0.316708 -0.358692
v 0.232604 0.182356 -0.436260
v 0.232604 0.029577 -0.463199
v 0.232604 0.416428 -0.239851
v 0.232604 0.469487 -0.094070
v 0.232604 0.469487 0.061066
v 0.232604 0.416428 0.206848
v 0.232605 0.316708 0.325688
v 0.232604 0.182356 0.403257
v 0.232604 0.029577 0.430195
v 0.232604 -0.123203 0.403257
v 0.232604 -0.257555 0.325688
v 0.232604 -0.357274 0.206848
v 0.232604 -0.410334 0.061067
v 0.232604 -0.410334 -0.094070
v 0.232604 -0.357274 -0.239851
v 0.232604 -0.257555 -0.358692
v 0.232604 -0.123203 -0.436260
v 0.232604 0.118440 -0.260653
v 0.232604 0.196586 -0.215536
v 0.232605 0.254587 -0.146412
v 0.232605 0.285449 -0.061618
v 0.232605 0.285449 0.028615
v 0.232605 0.254587 0.113408
v 0.232604 0.196586 0.182532
v 0.232604 0.118440 0.227650
v 0.232604 0.029577 0.243318
v 0.232604 -0.059287 0.227650
v 0.232604 -0.137432 0.182532
v 0.232604 -0.195434 0.113408
v 0.232604 -0.226296 0.028615
v 0.232604 -0.226296 -0.061618
v 0.232604 -0.195434 -0.146412
v 0.232604 -0.137432 -0.215536
v 0.232604 -0.078599 -0.260653
v 0.232604 0.029577 -0.276322
v 0.265710 0.196586 -0.215536
v 0.265710 0.118440 -0.260653
v 0.265710 0.029577 -0.276322
v 0.265710 0.254587 -0.146412
v 0.265710 0.285449 -0.061618
v 0.265710 0.285449 0.028615
v 0.265710 0.254587 0.113408
v 0.265710 0.196586 0.182532
v 0.265710 0.118440 0.227650
v 0.265710 0.029577 0.243318
v 0.265710 -0.059287 0.227650
v 0.265710 -0.137432 0.182532
v 0.265710 -0.195434 0.113408
v 0.265710 -0.226296 0.028615
v 0.265710 -0.226296 -0.061618
v 0.265710 -0.195434 -0.146412
v 0.265710 -0.137432 -0.215536
v 0.265710 -0.059287 -0.260653
vn -1.0000 -0.0000 -0.0000
vn 0.4992 0.5570 -0.6638
vn 0.4992 0.7504 -0.4332
vn 0.9542 0.2591 -0.1496
vn 0.9542 0.1923 -0.2292
vn -0.0000 -0.9848 0.1736
vn -0.0000 -0.9848 -0.1736
vn 0.4992 -0.8533 -0.1505
vn 0.4992 -0.8533 0.1505
vn -0.0000 0.8660 0.5000
vn -0.0000 0.6428 0.7660
vn 0.4992 0.5570 0.6638
vn 0.4992 0.7504 0.4332
vn -0.0000 -0.8660 -0.5000
vn 0.4992 -0.7504 -0.4332
vn -0.0000 0.3420 0.9397
vn 0.4992 0.2964 0.8142
vn -0.0000 -0.0000 -1.0000
vn -0.0000 0.3420 -0.9397
vn 0.4992 0.2964 -0.8142
vn 0.4992 -0.0000 -0.8665
vn -0.0000 -0.6428 -0.7660
vn 0.4992 -0.5570 -0.6638
vn -0.0000 -0.0000 1.0000
vn 0.4992 -0.0000 0.8665
vn -0.0000 0.6428 -0.7660
vn -0.0000 -0.3420 -0.9397
vn 0.4992 -0.2964 -0.8142
vn -0.0000 -0.3420 0.9397
vn 0.4992 -0.2964 0.8142
vn -0.0000 0.8660 -0.5000
vn -0.0000 -0.6428 0.7660
vn 0.4992 -0.5570 0.6638
vn -0.0000 0.9848 -0.1736
vn 0.4992 0.8533 -0.1505
vn -0.0000 -0.8660 0.5000
vn 0.4992 -0.7504 0.4332
vn -0.0000 0.9848 0.1736
vn 0.4992 0.8533 0.1505
vn 0.9542 -0.0000 -0.2992
vn 0.9542 -0.1023 -0.2811
vn 0.9542 -0.1923 0.2292
vn 0.9542 -0.1023 0.2811
vn 0.9542 0.2946 -0.0519
vn 0.9542 -0.2591 0.1496
vn 0.9542 0.2946 0.0519
vn 0.9542 -0.2946 0.0519
vn 0.9542 0.2591 0.1496
vn 0.9542 -0.2946 -0.0519
vn 0.9542 0.1923 0.2292
vn 0.9542 -0.2591 -0.1496
vn 0.9542 0.1023 0.2811
vn 0.9542 0.1023 -0.2811
vn 0.9542 -0.1923 -0.2292
vn 0.9542 -0.0000 0.2992
vn 1.0000 -0.0000 -0.0000
vn 0.0806 -0.6632 -0.7441
vn 0.0232 0.0085 -0.9997
vn 0.1158 -0.3971 -0.9104
vn 0.0935 -0.3207 -0.9426
vt 0.411552 0.527650
vt 0.414716 0.526802
vt 0.417980 0.527087
vt 0.420948 0.528472
vt 0.423265 0.530788
vt 0.424649 0.533757
vt 0.424934 0.537020
vt 0.424087 0.540184
vt 0.422208 0.542867
vt 0.419524 0.544746
vt 0.416360 0.545594
vt 0.413097 0.545308
vt 0.410128 0.543924
vt 0.407812 0.541608
vt 0.406428 0.538639
vt 0.406142 0.535376
vt 0.406990 0.532212
vt 0.408869 0.529528
vt 0.767884 0.709089
vt 0.694510 0.744001
vt 0.686681 0.715280
vt 0.750691 0.685201
vt 0.148739 0.619287
vt 0.148710 0.589202
vt 0.313419 0.585908
vt 0.312492 0.612636
vt 0.310354 0.294584
vt 0.307483 0.319859
vt 0.142776 0.325944
vt 0.144545 0.299893
vt 0.149526 0.560850
vt 0.313578 0.554445
vt 0.147020 0.474178
vt 0.146988 0.459002
vt 0.308285 0.459399
vt 0.307886 0.474615
vt 0.148190 0.478065
vt 0.149726 0.446628
vt 0.314932 0.439901
vt 0.313548 0.470737
vt 0.148428 0.531077
vt 0.314615 0.525933
vt 0.143456 0.488431
vt 0.143576 0.469738
vt 0.305272 0.469158
vt 0.304754 0.488828
vt 0.150637 0.420787
vt 0.314667 0.409949
vt 0.149073 0.500908
vt 0.314975 0.497712
vt 0.148285 0.492104
vt 0.148314 0.472417
vt 0.311023 0.469448
vt 0.309981 0.491524
vt 0.149787 0.393179
vt 0.314391 0.385192
vt 0.137719 0.506554
vt 0.137613 0.482188
vt 0.301261 0.479266
vt 0.300429 0.503586
vt 0.150855 0.371988
vt 0.313900 0.365439
vt 0.147030 0.491606
vt 0.147132 0.469182
vt 0.311315 0.465499
vt 0.310678 0.488683
vt 0.150137 0.347893
vt 0.313269 0.344968
vt 0.144777 0.516269
vt 0.145207 0.492154
vt 0.308960 0.485503
vt 0.308960 0.512586
vt 0.150116 0.327514
vt 0.312126 0.320534
vt 0.923917 0.911515
vt 0.864897 0.497131
vt 0.858552 0.578118
vt 0.829742 0.570619
vt 0.835601 0.500169
vt 0.442343 0.385406
vt 0.499708 0.328467
vt 0.516328 0.352639
vt 0.466319 0.402486
vt 0.613804 0.750989
vt 0.616283 0.721937
vt 0.572765 0.294462
vt 0.580170 0.322684
vt 0.535767 0.730455
vt 0.547920 0.703607
vt 0.652673 0.287367
vt 0.650243 0.316108
vt 0.468799 0.684373
vt 0.489842 0.663191
vt 0.730232 0.307783
vt 0.718202 0.334339
vt 0.422280 0.617693
vt 0.449051 0.605366
vt 0.796468 0.353543
vt 0.776052 0.374504
vt 0.401275 0.539759
vt 0.430281 0.537155
vt 0.824527 0.651603
vt 0.800559 0.635025
vt 0.843188 0.419287
vt 0.816774 0.432093
vt 0.408014 0.459069
vt 0.436796 0.466752
vt 0.747647 0.680632
vt 0.796043 0.631749
vt 0.685293 0.710008
vt 0.616702 0.716300
vt 0.550223 0.698693
vt 0.493689 0.659357
vt 0.454014 0.603052
vt 0.435994 0.536641
vt 0.441903 0.468128
vt 0.470833 0.405653
vt 0.519327 0.356907
vt 0.581427 0.327743
vt 0.649786 0.321546
vt 0.716121 0.339123
vt 0.772470 0.378291
vt 0.812060 0.434348
vt 0.830236 0.500609
vt 0.824652 0.569196
vt 0.404876 0.547162
vt 0.418991 0.545758
vt 0.423101 0.548394
vt 0.411224 0.549036
vt 0.454465 0.519155
vt 0.490222 0.517508
vt 0.488188 0.520956
vt 0.455860 0.522403
vt 0.638034 0.000095
vt 0.363938 0.554607
vt 0.378556 0.560540
vt 0.129813 0.068438
vt 0.525570 0.517645
vt 0.519618 0.521065
vt 0.356703 0.548852
vt 0.368463 0.552743
vt 0.574553 0.536789
vt 0.549552 0.537558
vt 0.541998 0.538482
vt 0.561356 0.537040
vt 0.557969 0.520161
vt 0.546843 0.523086
vt 0.347331 0.545998
vt 0.365913 0.546400
vt 0.587649 0.533513
vt 0.570596 0.533882
vt 0.580652 0.525761
vt 0.564995 0.528243
vt 0.360548 0.532599
vt 0.376130 0.536504
vt 0.387206 0.526805
vt 0.397055 0.529724
vt 0.511207 0.532443
vt 0.478552 0.523985
vt 0.485372 0.528929
vt 0.508781 0.534090
vt 0.420358 0.521353
vt 0.425387 0.524617
vt 0.791366 0.999905
vt 0.312487 0.999905
vt 0.683893 0.328341
vt 0.745908 0.357259
vt 0.678065 0.454150
vt 0.653279 0.442592
vt 0.794293 0.405643
vt 0.697402 0.473487
vt 0.823211 0.467658
vt 0.708960 0.498273
vt 0.829175 0.535824
vt 0.711343 0.525515
vt 0.811465 0.601919
vt 0.704265 0.551931
vt 0.772218 0.657970
vt 0.688580 0.574332
vt 0.716166 0.697218
vt 0.666178 0.590018
vt 0.650072 0.714928
vt 0.639763 0.597096
vt 0.581906 0.708965
vt 0.612520 0.594713
vt 0.519891 0.680046
vt 0.587735 0.583155
vt 0.471507 0.631662
vt 0.568397 0.563818
vt 0.442588 0.569647
vt 0.556840 0.539033
vt 0.436625 0.501481
vt 0.554456 0.511790
vt 0.454334 0.435387
vt 0.561534 0.485374
vt 0.493581 0.379335
vt 0.577220 0.462973
vt 0.549633 0.340088
vt 0.593790 0.447797
vt 0.615727 0.322378
vt 0.626037 0.440209
vt 0.609820 0.598109
vt 0.582746 0.586151
vt 0.561623 0.566145
vt 0.548998 0.540502
vt 0.546395 0.512316
vt 0.554126 0.484986
vt 0.571260 0.461810
vt 0.595731 0.445581
vt 0.624585 0.438258
vt 0.654345 0.440723
vt 0.681418 0.452681
vt 0.702542 0.472688
vt 0.715167 0.498331
vt 0.717770 0.526516
vt 0.710039 0.553846
vt 0.692904 0.577023
vt 0.668434 0.593252
vt 0.639579 0.600574
vt 0.501104 0.534141
vt 0.478252 0.543754
vt 0.468766 0.543329
vt 0.499094 0.530768
vt 0.439125 0.542930
vt 0.442293 0.544084
vt 0.457608 0.557382
vt 0.454161 0.552519
vt 0.460250 0.542492
vt 0.461501 0.546187
vt 0.436194 0.565044
vt 0.439258 0.561024
vt 0.483088 0.541803
vt 0.481481 0.545647
vt 0.410460 0.563660
vt 0.418092 0.558878
vt 0.505080 0.541394
vt 0.502995 0.545002
vt 0.401702 0.554856
vt 0.411391 0.553490
vt 0.537817 0.533774
vt 0.523025 0.530597
vt 0.521485 0.529233
vt 0.533828 0.533086
vt 0.522351 0.540548
vt 0.517055 0.543271
vt 0.400756 0.551360
vt 0.407868 0.550966
vt 0.540907 0.537797
vt 0.534192 0.538635
vt 0.535983 0.538867
vt 0.532803 0.541259
s 1
usemtl mix
f 2/1/1 1/2/1 18/3/1 17/4/1 16/5/1 15/6/1 14/7/1 13/8/1 12/9/1 11/10/1 10/11/1 9/12/1 8/13/1 7/14/1 6/15/1 5/16/1 4/17/1 3/18/1
f 21/19/2 22/20/3 40/21/4 39/22/5
f 14/23/6 15/24/7 33/25/8 32/26/9
f 7/27/10 8/28/11 26/29/12 25/30/13
f 15/24/7 16/31/14 34/32/15 33/25/8
f 8/33/11 9/34/16 27/35/17 26/36/12
f 1/37/18 2/38/19 19/39/20 20/40/21
f 16/31/14 17/41/22 35/42/23 34/32/15
f 9/43/16 10/44/24 28/45/25 27/46/17
f 2/38/19 3/47/26 21/48/2 19/39/20
f 17/41/22 18/49/27 36/50/28 35/42/23
f 10/51/24 11/52/29 29/53/30 28/54/25
f 3/47/26 4/55/31 22/56/3 21/48/2
f 18/49/27 1/37/18 20/40/21 36/50/28
f 11/57/29 12/58/32 30/59/33 29/60/30
f 4/55/31 5/61/34 23/62/35 22/56/3
f 12/63/32 13/64/36 31/65/37 30/66/33
f 5/61/34 6/67/38 24/68/39 23/62/35
f 13/69/36 14/70/6 32/71/9 31/72/37
f 6/67/38 7/73/10 25/74/13 24/68/39
f 59/75/7 60/75/14 79/75/14 78/75/7
f 36/76/28 20/77/21 38/78/40 54/79/41
f 29/80/30 30/81/33 48/82/42 47/83/43
f 22/20/3 23/84/35 41/85/44 40/21/4
f 30/81/33 31/86/37 49/87/45 48/82/42
f 23/84/35 24/88/39 42/89/46 41/85/44
f 31/86/37 32/90/9 50/91/47 49/87/45
f 24/88/39 25/92/13 43/93/48 42/89/46
f 32/90/9 33/94/8 51/95/49 50/91/47
f 25/92/13 26/96/12 44/97/50 43/93/48
f 33/94/8 34/98/15 52/99/51 51/95/49
f 26/96/12 27/100/17 45/101/52 44/97/50
f 20/77/21 19/102/20 37/103/53 38/78/40
f 34/98/15 35/104/23 53/105/54 52/99/51
f 27/100/17 28/106/25 46/107/55 45/101/52
f 19/102/20 21/19/2 39/22/5 37/103/53
f 35/104/23 36/76/28 54/79/41 53/105/54
f 28/106/25 29/80/30 47/83/43 46/107/55
f 37/103/53 39/22/5 56/108/56 55/109/56
f 39/22/5 40/21/4 57/110/56 56/108/56
f 40/21/4 41/85/44 58/111/56 57/110/56
f 41/85/44 42/89/46 59/112/56 58/111/56
f 42/89/46 43/93/48 60/113/56 59/112/56
f 43/93/48 44/97/50 61/114/56 60/113/56
f 44/97/50 45/101/52 62/115/56 61/114/56
f 45/101/52 46/107/55 63/116/56 62/115/56
f 46/107/55 47/83/43 64/117/56 63/116/56
f 47/83/43 48/82/42 65/118/56 64/117/56
f 48/82/42 49/87/45 66/119/56 65/118/56
f 49/87/45 50/91/47 67/120/56 66/119/56
f 50/91/47 51/95/49 68/121/56 67/120/56
f 51/95/49 52/99/51 69/122/56 68/121/56
f 52/99/51 53/105/54 70/123/56 69/122/56
f 53/105/54 54/79/41 71/124/56 70/123/56
f 54/79/41 38/78/40 72/125/56 71/124/56
f 38/78/40 37/103/53 55/109/56 72/125/56
f 100/126/29 101/127/32 120/128/32 119/129/29
f 67/130/34 68/131/38 87/132/38 86/133/34
f 60/134/14 61/135/22 80/136/22 79/137/14
f 68/131/38 69/138/10 88/139/10 87/132/38
f 61/135/22 62/140/27 81/141/27 80/136/22
f 55/142/29 56/143/32 73/144/32 74/145/29
f 69/138/10 70/146/11 89/147/11 88/139/10
f 62/140/27 63/148/18 82/149/18 81/141/27
f 72/150/24 55/142/29 74/145/29 75/151/24
f 70/146/11 71/152/16 90/153/16 89/147/11
f 63/148/18 64/154/19 83/155/19 82/149/18
f 56/75/32 57/75/36 76/75/36 73/75/32
f 71/152/16 72/150/24 75/151/24 90/153/16
f 64/154/19 65/156/26 84/157/26 83/155/19
f 57/158/36 58/159/6 77/160/6 76/161/36
f 65/156/26 66/162/31 85/163/31 84/157/26
f 58/159/6 59/164/7 78/165/7 77/160/6
f 66/162/31 67/130/34 86/133/34 85/163/31
f 74/166/56 73/167/56 92/168/56 91/169/56
f 73/167/56 76/170/56 93/171/56 92/168/56
f 76/170/56 77/172/56 94/173/56 93/171/56
f 77/172/56 78/174/56 95/175/56 94/173/56
f 78/174/56 79/176/56 96/177/56 95/175/56
f 79/176/56 80/178/56 97/179/56 96/177/56
f 80/178/56 81/180/56 98/181/56 97/179/56
f 81/180/56 82/182/56 99/183/56 98/181/56
f 82/182/56 83/184/56 100/185/56 99/183/56
f 83/184/56 84/186/56 101/187/56 100/185/56
f 84/186/56 85/188/56 102/189/56 101/187/56
f 85/188/56 86/190/56 103/191/56 102/189/56
f 86/190/56 87/192/56 104/193/56 103/191/56
f 87/192/56 88/194/56 105/195/56 104/193/56
f 88/194/56 89/196/56 106/197/56 105/195/56
f 89/196/56 90/198/56 107/199/56 106/197/56
f 90/198/56 75/200/56 108/201/56 107/199/56
f 75/200/56 74/166/56 91/169/56 108/201/56
f 110/202/56 109/203/56 112/204/56 113/205/56 114/206/56 115/207/56 116/208/56 117/209/56 118/210/56 119/211/56 120/212/56 121/213/56 122/214/56 123/215/56 124/216/56 125/217/56 126/218/56 111/219/56
f 93/220/31 94/221/34 113/222/34 112/223/31
f 101/127/32 102/224/36 121/225/36 120/128/32
f 94/221/34 95/226/38 114/227/38 113/222/34
f 102/224/36 103/228/6 122/229/6 121/225/36
f 95/226/38 96/230/10 115/231/10 114/227/38
f 103/228/6 104/232/7 123/233/7 122/229/6
f 96/230/10 97/234/11 116/235/11 115/231/10
f 104/232/7 105/236/14 124/237/14 123/233/7
f 97/234/11 98/238/16 117/239/16 116/235/11
f 91/240/19 92/241/26 109/242/26 110/243/19
f 105/236/14 106/244/57 125/245/57 124/237/14
f 98/238/16 99/246/24 118/247/24 117/239/16
f 108/248/58 91/240/19 110/243/19 111/249/58
f 106/244/57 107/250/59 126/251/60 125/245/57
f 99/246/24 100/126/29 119/129/29 118/247/24
f 92/241/26 93/220/31 112/223/31 109/242/26
f 107/250/59 108/248/58 111/249/58 126/251/60
