# Blender 3.6.2
# www.blender.org
mtllib pierna_derecha.mtl
o Metal_Gear_Solid_Intergral_-_Solid_Snake.003
v -2.096553 -18.409672 2.486206
v -3.446553 -10.209671 -3.763794
v -2.696553 -15.809669 -2.763794
v -3.396553 -6.609672 4.186205
v 2.153447 -20.509670 2.836206
v 3.903447 -8.559669 5.336205
v 3.803447 -10.859673 -5.113794
v 3.003447 -17.959671 -4.113794
v 4.003448 -4.459671 -5.063795
v -3.496553 -0.459671 -3.313795
v -2.896553 4.090326 -2.913795
v -2.646553 3.040329 3.536205
v 3.903447 -3.359672 5.386205
v 3.953447 -2.309670 -4.763795
v -3.496552 -0.459679 -3.313795
v 3.953448 -2.309678 -4.763795
v 4.003448 -4.459679 -5.063795
v -2.896552 4.090326 -2.913795
v -1.846552 -35.459671 0.836207
v 0.903448 -43.259670 0.586208
v 1.453448 -35.459671 1.086207
v -1.196552 -43.259670 0.586208
v -2.496552 -35.609669 -3.313793
v -2.096552 -40.309669 -3.163792
v 2.153448 -35.609669 -4.263793
v 1.903448 -40.309669 -3.963792
v -2.396552 -32.259670 1.836207
v 2.453448 -32.259670 2.186207
v 3.503448 -32.259670 -5.963793
v -3.296552 -32.259670 -4.913793
v 2.153448 -22.109669 2.586206
v 3.003448 -23.309669 -4.513794
v -2.746552 -23.309669 -3.163794
v -1.996552 -22.359669 2.186206
v -2.096552 -18.409668 2.486206
v 2.153448 -20.509670 2.836206
v 3.003448 -17.959671 -4.113794
v -2.696552 -15.809669 -2.763794
v -2.646552 -50.459679 -3.963792
v 1.903448 -46.959679 -4.513793
v 1.903448 -50.459679 -4.513792
v -2.396552 -46.959679 -3.963792
v -2.096552 -40.309677 -3.163792
v -1.046552 -45.909676 1.386208
v -1.196552 -43.259678 0.586208
v 1.903448 -40.309677 -3.963792
v 0.903448 -43.259678 0.586208
v 0.803448 -45.909676 1.386208
v -1.696552 -49.009678 8.886209
v -1.896552 -48.509678 5.636209
v -2.146552 -50.459679 5.436209
v -1.396552 -47.459679 5.136209
v 0.953448 -49.009678 8.886209
v 0.903448 -47.459679 5.136209
v 1.203448 -48.509678 5.536208
v 1.403448 -50.459679 5.336208
v -1.996552 -50.459679 8.586208
v 1.203448 -50.459679 8.586208
vn -0.7298 -0.1269 0.6718
vn -0.7707 -0.0983 -0.6296
vn -0.8136 -0.0751 -0.5766
vn -0.7425 -0.0261 0.6694
vn 0.5962 -0.1826 0.7818
vn 0.6256 -0.1020 0.7735
vn 0.6245 -0.1077 -0.7735
vn 0.6431 -0.0749 -0.7621
vn 0.5129 0.0779 -0.8549
vn -0.6758 0.1196 -0.7273
vn -0.7808 0.1395 -0.6090
vn -0.8109 0.1169 0.5734
vn 0.1730 -0.3260 0.9294
vn 0.3254 -0.3589 -0.8748
vn -0.6835 -0.2134 0.6980
vn 0.6416 0.0371 0.7661
vn 0.5973 -0.2788 0.7520
vn -0.6177 0.0444 0.7852
vn -0.8310 -0.2574 -0.4931
vn -0.8201 0.0127 -0.5721
vn 0.6476 -0.3686 -0.6669
vn 0.6852 -0.0010 -0.7284
vn -0.6765 -0.1546 0.7200
vn 0.6296 -0.1994 0.7509
vn 0.6624 -0.1865 -0.7256
vn -0.7623 -0.1412 -0.6317
vn 0.6295 -0.0550 0.7750
vn 0.6737 0.1247 -0.7284
vn -0.8310 0.1016 -0.5469
vn -0.6909 -0.0324 0.7222
vn 0.5963 -0.1826 0.7817
vn -0.6478 -0.5600 -0.5165
vn 0.6942 0.0678 -0.7165
vn 0.5610 -0.5689 -0.6014
vn -0.7792 0.1089 -0.6173
vn -0.6362 0.5793 0.5095
vn 0.6995 0.5140 0.4964
vn -0.5235 0.4268 0.7375
vn -0.9491 0.2995 0.0977
vn -0.7496 -0.6603 0.0461
vn -0.5065 0.8111 0.2924
vn 0.5190 0.4200 0.7445
vn 0.5812 0.7567 0.2993
vn 0.9731 0.2095 0.0962
vn 0.7356 -0.6754 0.0515
vn -0.6377 -0.5674 0.5210
vn 0.6128 -0.5851 0.5311
vt 0.284149 0.084381
vt 0.872620 0.419739
vt 0.781342 0.191559
vt 0.116180 0.563934
vt 0.251648 0.000031
vt 0.009735 0.483521
vt 0.999969 0.394287
vt 0.909515 0.105133
vt 0.989105 0.653381
vt 0.821686 0.815674
vt 0.780609 1.000000
vt 0.173065 0.954773
vt 0.000000 0.693787
vt 0.962341 0.740112
vt 0.769958 0.000031
vt 0.128662 0.875549
vt 0.000000 0.453186
vt 0.999969 1.000000
vt 0.227844 0.282959
vt 0.258118 0.000031
vt 0.197571 0.282959
vt 0.697174 0.278076
vt 0.682037 0.107361
vt 0.803131 0.278076
vt 0.772858 0.107361
vt 0.116974 0.400269
vt 0.076447 0.399780
vt 0.999969 0.400024
vt 0.878845 0.400024
vt 0.030273 0.770752
vt 0.833405 0.726868
vt 0.682037 0.726868
vt 0.077209 0.760986
vt 0.040527 0.905029
vt 0.000000 0.829285
vt 0.787994 0.921967
vt 0.636597 1.000000
vt 0.959961 0.009949
vt 0.999969 0.348663
vt 0.999969 0.009949
vt 0.959961 0.348663
vt 0.899963 1.000000
vt 0.559967 0.452881
vt 0.619965 0.713409
vt 0.959961 1.000000
vt 0.000000 0.150635
vt 0.239990 0.200134
vt 0.254974 0.009949
vt 0.279968 0.301758
vt 0.249969 0.200134
vt 0.264984 0.009949
vt 0.019989 0.009949
s 1
usemtl Upper_Holster_Leg
f 1/1/1 2/2/2 3/3/3
f 1/1/1 4/4/4 2/2/2
f 5/5/5 4/4/4 1/1/1
f 5/5/5 6/6/6 4/4/4
f 7/7/7 3/3/3 2/2/2
f 7/7/7 8/8/8 3/3/3
f 6/6/6 8/8/8 7/7/7
f 6/6/6 5/5/5 8/8/8
f 2/2/2 9/9/9 7/7/7
f 2/2/2 10/10/10 9/9/9
f 4/4/4 10/10/10 2/2/2
f 4/4/4 11/11/11 10/10/10
f 4/4/4 12/12/12 11/11/11
f 6/6/6 12/12/12 4/4/4
f 6/6/6 13/13/13 12/12/12
f 7/7/7 13/13/13 6/6/6
f 7/7/7 14/14/14 13/13/13
f 9/9/9 14/14/14 7/7/7
usemtl Backside
f 15/15/10 16/16/14 17/17/9
f 15/15/10 18/18/11 16/16/14
usemtl Lower_Legs
f 19/19/15 20/20/16 21/21/17
f 19/19/15 22/20/18 20/20/16
f 23/22/19 22/20/18 19/19/15
f 23/22/19 24/23/20 22/20/18
f 25/24/21 24/23/20 23/22/19
f 25/24/21 26/25/22 24/23/20
f 21/21/17 26/25/22 25/24/21
f 21/21/17 20/20/16 26/25/22
f 21/21/17 27/26/23 19/19/15
f 21/21/17 28/27/24 27/26/23
f 25/24/21 28/27/24 21/21/17
f 25/24/21 29/28/25 28/27/24
f 23/22/19 29/28/25 25/24/21
f 23/22/19 30/29/26 29/28/25
f 19/19/15 30/29/26 23/22/19
f 19/19/15 27/26/23 30/29/26
f 29/28/25 31/30/27 28/27/24
f 29/28/25 32/31/28 31/30/27
f 30/29/26 32/31/28 29/28/25
f 30/29/26 33/32/29 32/31/28
f 27/26/23 33/32/29 30/29/26
f 34/33/30 28/27/24 31/30/27
f 34/33/30 27/26/23 28/27/24
f 33/32/29 27/26/23 34/33/30
f 31/30/27 35/34/1 34/33/30
f 31/30/27 36/35/31 35/34/1
f 32/31/28 36/35/31 31/30/27
f 32/31/28 37/36/8 36/35/31
f 33/32/29 37/36/8 32/31/28
f 33/32/29 38/37/3 37/36/8
f 34/33/30 38/37/3 33/32/29
f 34/33/30 35/34/1 38/37/3
usemtl Feet
f 39/38/32 40/39/33 41/40/34
f 39/38/32 42/41/35 40/39/33
f 43/42/20 44/43/36 45/44/18
f 43/42/20 42/41/35 44/43/36
f 46/45/22 42/41/35 43/42/20
f 46/45/22 40/39/33 42/41/35
f 47/44/16 40/39/33 46/45/22
f 47/44/16 48/43/37 40/39/33
f 48/43/37 45/44/18 44/43/36
f 48/43/37 47/44/16 45/44/18
f 49/46/38 50/47/39 51/48/40
f 49/46/38 52/49/41 50/47/39
f 53/46/42 52/49/41 49/46/38
f 53/46/42 54/49/43 52/49/41
f 55/50/44 54/49/43 53/46/42
f 56/51/45 57/52/46 51/48/40
f 56/51/45 58/52/47 57/52/46
f 55/50/44 58/52/47 56/51/45
f 55/50/44 53/46/42 58/52/47
f 49/46/38 58/52/47 53/46/42
f 49/46/38 57/52/46 58/52/47
f 51/48/40 57/52/46 49/46/38
f 56/51/45 40/39/33 55/50/44
f 56/51/45 41/40/34 40/39/33
f 51/48/40 41/40/34 56/51/45
f 51/48/40 39/38/32 41/40/34
f 50/47/39 39/38/32 51/48/40
f 50/47/39 42/41/35 39/38/32
f 52/49/41 42/41/35 50/47/39
f 52/49/41 44/43/36 42/41/35
f 54/49/43 44/43/36 52/49/41
f 54/49/43 48/43/37 44/43/36
f 55/50/44 48/43/37 54/49/43
f 55/50/44 40/39/33 48/43/37
